<?xml version="1.0" encoding="UTF-8"?>
<svg width="23px" height="23px" viewBox="0 0 23 23" version="1.1" xmlns="http://www.w3.org/2000/svg" xmlns:xlink="http://www.w3.org/1999/xlink">
    <title>A245C617-9778-4C52-A93A-005CFC116DF7</title>
    <g id="tablet-web" stroke="none" stroke-width="1" fill="none" fill-rule="evenodd">
        <g id="search" transform="translate(-371.000000, -954.000000)" fill="#FFFFFF" fill-rule="nonzero">
            <g id="NF+_ikon_søg_RGB-Copy" transform="translate(371.000000, 954.000000)">
                <path d="M22.186,21.4 L16.338,15.55 C19.6211905,11.8630232 19.4302956,6.24754455 15.9043008,2.792042 C12.3783059,-0.663460556 6.76011758,-0.74092891 3.1401866,2.61603955 C-0.479744389,5.97300801 -0.82539923,11.5810883 2.35488401,15.3571889 C5.53516724,19.1332896 11.1203448,19.7463423 15.044,16.75 L20.944,22.648 L22.186,21.4 Z M1.914,9.4 C1.914,5.23577299 5.28977299,1.86 9.454,1.86 C13.618227,1.86 16.994,5.23577299 16.994,9.4 C16.994,13.564227 13.618227,16.94 9.454,16.94 C5.29160076,16.9355907 1.91840932,13.5623992 1.914,9.4 L1.914,9.4 Z" id="Shape"></path>
            </g>
        </g>
    </g>
</svg>